<svg version="1" xmlns="http://www.w3.org/2000/svg" width="231" height="231"><path fill="none" d="M0 0h231v231H0z"/><path d="M91 14h7v7h-7zM98 14h7v7h-7zM133 14h7v7h-7zM140 14h7v7h-7zM77 21h7v7h-7zM84 21h7v7h-7zM91 21h7v7h-7zM105 21h7v7h-7zM112 21h7v7h-7zM119 21h7v7h-7zM126 21h7v7h-7zM133 21h7v7h-7zM154 21h7v7h-7zM98 28h7v7h-7zM112 28h7v7h-7zM133 28h7v7h-7zM140 28h7v7h-7zM147 28h7v7h-7zM77 35h7v7h-7zM84 35h7v7h-7zM91 35h7v7h-7zM112 35h7v7h-7zM119 35h7v7h-7zM126 35h7v7h-7zM147 35h7v7h-7zM154 35h7v7h-7zM77 42h7v7h-7zM84 42h7v7h-7zM91 42h7v7h-7zM105 42h7v7h-7zM112 42h7v7h-7zM119 42h7v7h-7zM126 42h7v7h-7zM70 49h7v7h-7zM84 49h7v7h-7zM112 49h7v7h-7zM119 49h7v7h-7zM140 49h7v7h-7zM147 49h7v7h-7zM154 49h7v7h-7zM70 56h7v7h-7zM84 56h7v7h-7zM98 56h7v7h-7zM112 56h7v7h-7zM126 56h7v7h-7zM140 56h7v7h-7zM154 56h7v7h-7zM77 63h7v7h-7zM91 63h7v7h-7zM112 63h7v7h-7zM119 63h7v7h-7zM133 63h7v7h-7zM147 63h7v7h-7zM154 63h7v7h-7zM14 70h7v7h-7zM35 70h7v7h-7zM49 70h7v7h-7zM56 70h7v7h-7zM70 70h7v7h-7zM91 70h7v7h-7zM98 70h7v7h-7zM112 70h7v7h-7zM133 70h7v7h-7zM154 70h7v7h-7zM161 70h7v7h-7zM175 70h7v7h-7zM14 77h7v7h-7zM35 77h7v7h-7zM42 77h7v7h-7zM49 77h7v7h-7zM84 77h7v7h-7zM91 77h7v7h-7zM98 77h7v7h-7zM112 77h7v7h-7zM189 77h7v7h-7zM203 77h7v7h-7zM210 77h7v7h-7zM14 84h7v7h-7zM21 84h7v7h-7zM35 84h7v7h-7zM42 84h7v7h-7zM56 84h7v7h-7zM63 84h7v7h-7zM77 84h7v7h-7zM91 84h7v7h-7zM98 84h7v7h-7zM112 84h7v7h-7zM126 84h7v7h-7zM133 84h7v7h-7zM140 84h7v7h-7zM147 84h7v7h-7zM168 84h7v7h-7zM175 84h7v7h-7zM182 84h7v7h-7zM203 84h7v7h-7zM35 91h7v7h-7zM63 91h7v7h-7zM70 91h7v7h-7zM77 91h7v7h-7zM84 91h7v7h-7zM91 91h7v7h-7zM105 91h7v7h-7zM112 91h7v7h-7zM119 91h7v7h-7zM126 91h7v7h-7zM147 91h7v7h-7zM154 91h7v7h-7zM161 91h7v7h-7zM168 91h7v7h-7zM182 91h7v7h-7zM196 91h7v7h-7zM203 91h7v7h-7zM14 98h7v7h-7zM35 98h7v7h-7zM49 98h7v7h-7zM56 98h7v7h-7zM63 98h7v7h-7zM77 98h7v7h-7zM84 98h7v7h-7zM105 98h7v7h-7zM112 98h7v7h-7zM126 98h7v7h-7zM133 98h7v7h-7zM140 98h7v7h-7zM147 98h7v7h-7zM161 98h7v7h-7zM168 98h7v7h-7zM175 98h7v7h-7zM203 98h7v7h-7zM210 98h7v7h-7zM14 105h7v7h-7zM28 105h7v7h-7zM35 105h7v7h-7zM70 105h7v7h-7zM91 105h7v7h-7zM98 105h7v7h-7zM112 105h7v7h-7zM119 105h7v7h-7zM140 105h7v7h-7zM147 105h7v7h-7zM161 105h7v7h-7zM168 105h7v7h-7zM189 105h7v7h-7zM196 105h7v7h-7zM21 112h7v7h-7zM28 112h7v7h-7zM35 112h7v7h-7zM42 112h7v7h-7zM49 112h7v7h-7zM56 112h7v7h-7zM63 112h7v7h-7zM70 112h7v7h-7zM84 112h7v7h-7zM98 112h7v7h-7zM105 112h7v7h-7zM133 112h7v7h-7zM140 112h7v7h-7zM154 112h7v7h-7zM175 112h7v7h-7zM182 112h7v7h-7zM189 112h7v7h-7zM196 112h7v7h-7zM203 112h7v7h-7zM210 112h7v7h-7zM14 119h7v7h-7zM21 119h7v7h-7zM42 119h7v7h-7zM63 119h7v7h-7zM70 119h7v7h-7zM77 119h7v7h-7zM91 119h7v7h-7zM98 119h7v7h-7zM105 119h7v7h-7zM112 119h7v7h-7zM119 119h7v7h-7zM126 119h7v7h-7zM133 119h7v7h-7zM140 119h7v7h-7zM161 119h7v7h-7zM182 119h7v7h-7zM42 126h7v7h-7zM56 126h7v7h-7zM77 126h7v7h-7zM98 126h7v7h-7zM126 126h7v7h-7zM147 126h7v7h-7zM161 126h7v7h-7zM182 126h7v7h-7zM189 126h7v7h-7zM210 126h7v7h-7zM21 133h7v7h-7zM28 133h7v7h-7zM35 133h7v7h-7zM42 133h7v7h-7zM84 133h7v7h-7zM98 133h7v7h-7zM112 133h7v7h-7zM126 133h7v7h-7zM140 133h7v7h-7zM147 133h7v7h-7zM175 133h7v7h-7zM189 133h7v7h-7zM203 133h7v7h-7zM210 133h7v7h-7zM14 140h7v7h-7zM35 140h7v7h-7zM56 140h7v7h-7zM70 140h7v7h-7zM84 140h7v7h-7zM91 140h7v7h-7zM98 140h7v7h-7zM112 140h7v7h-7zM126 140h7v7h-7zM133 140h7v7h-7zM154 140h7v7h-7zM175 140h7v7h-7zM189 140h7v7h-7zM196 140h7v7h-7zM203 140h7v7h-7zM210 140h7v7h-7zM28 147h7v7h-7zM49 147h7v7h-7zM133 147h7v7h-7zM147 147h7v7h-7zM168 147h7v7h-7zM189 147h7v7h-7zM203 147h7v7h-7zM14 154h7v7h-7zM28 154h7v7h-7zM35 154h7v7h-7zM49 154h7v7h-7zM56 154h7v7h-7zM63 154h7v7h-7zM70 154h7v7h-7zM77 154h7v7h-7zM84 154h7v7h-7zM98 154h7v7h-7zM112 154h7v7h-7zM119 154h7v7h-7zM126 154h7v7h-7zM154 154h7v7h-7zM161 154h7v7h-7zM168 154h7v7h-7zM175 154h7v7h-7zM182 154h7v7h-7zM196 154h7v7h-7zM210 154h7v7h-7zM70 161h7v7h-7zM77 161h7v7h-7zM84 161h7v7h-7zM91 161h7v7h-7zM112 161h7v7h-7zM119 161h7v7h-7zM126 161h7v7h-7zM133 161h7v7h-7zM140 161h7v7h-7zM154 161h7v7h-7zM182 161h7v7h-7zM196 161h7v7h-7zM203 161h7v7h-7zM210 161h7v7h-7zM77 168h7v7h-7zM84 168h7v7h-7zM91 168h7v7h-7zM98 168h7v7h-7zM105 168h7v7h-7zM112 168h7v7h-7zM126 168h7v7h-7zM133 168h7v7h-7zM147 168h7v7h-7zM154 168h7v7h-7zM168 168h7v7h-7zM182 168h7v7h-7zM189 168h7v7h-7zM203 168h7v7h-7zM70 175h7v7h-7zM77 175h7v7h-7zM91 175h7v7h-7zM105 175h7v7h-7zM112 175h7v7h-7zM119 175h7v7h-7zM140 175h7v7h-7zM154 175h7v7h-7zM182 175h7v7h-7zM189 175h7v7h-7zM196 175h7v7h-7zM203 175h7v7h-7zM210 175h7v7h-7zM77 182h7v7h-7zM84 182h7v7h-7zM98 182h7v7h-7zM112 182h7v7h-7zM133 182h7v7h-7zM140 182h7v7h-7zM154 182h7v7h-7zM161 182h7v7h-7zM168 182h7v7h-7zM175 182h7v7h-7zM182 182h7v7h-7zM189 182h7v7h-7zM70 189h7v7h-7zM77 189h7v7h-7zM105 189h7v7h-7zM126 189h7v7h-7zM133 189h7v7h-7zM140 189h7v7h-7zM147 189h7v7h-7zM154 189h7v7h-7zM161 189h7v7h-7zM168 189h7v7h-7zM175 189h7v7h-7zM196 189h7v7h-7zM203 189h7v7h-7zM77 196h7v7h-7zM91 196h7v7h-7zM147 196h7v7h-7zM161 196h7v7h-7zM182 196h7v7h-7zM196 196h7v7h-7zM210 196h7v7h-7zM84 203h7v7h-7zM133 203h7v7h-7zM147 203h7v7h-7zM154 203h7v7h-7zM161 203h7v7h-7zM168 203h7v7h-7zM182 203h7v7h-7zM189 203h7v7h-7zM203 203h7v7h-7zM70 210h7v7h-7zM91 210h7v7h-7zM105 210h7v7h-7zM126 210h7v7h-7zM133 210h7v7h-7zM154 210h7v7h-7zM182 210h7v7h-7zM203 210h7v7h-7z" fill="#fff"/><g fill="#fff"><path fill="none" d="M21 21h35v35H21z"/><path d="M56 14H14v49h49V14h-7zm0 42H21V21h35v35z"/></g><g fill="#fff"><path fill="none" d="M175 21h35v35h-35z"/><path d="M210 14h-42v49h49V14h-7zm0 42h-35V21h35v35z"/></g><g fill="#fff"><path fill="none" d="M21 175h35v35H21z"/><path d="M56 168H14v49h49v-49h-7zm0 42H21v-35h35v35z"/></g><path d="M28 28h21v21H28zM182 28h21v21h-21zM28 182h21v21H28z" fill="#fff"/></svg>